HIERARCHY
ROOT Hips
{
	OFFSET 0.00 0.00 0.00
	CHANNELS 6 Xposition Yposition Zposition Xrotation Yrotation Zrotation
	JOINT Spine
	{
		OFFSET 0.00000 1.70439 2.55658
		CHANNELS 3 Xrotation Yrotation Zrotation
		JOINT Spine1
		{
			OFFSET 0.00000 0.59193 3.35699
			CHANNELS 3 Xrotation Yrotation Zrotation
			JOINT Spine2
			{
				OFFSET 0.00000 0.29710 3.39581
				CHANNELS 3 Xrotation Yrotation Zrotation
				JOINT Spine3
				{
					OFFSET 0.00000 0.00000 3.40878
					CHANNELS 3 Xrotation Yrotation Zrotation
					JOINT Neck
					{
						OFFSET 0.00000 -1.27828 8.94804
						CHANNELS 3 Xrotation Yrotation Zrotation
						JOINT Head
						{
							OFFSET 0.00000 -0.81390 4.61586
							CHANNELS 3 Xrotation Yrotation Zrotation
							End Site
							{
								OFFSET 0.00000 0.00001 5.51796
							}
						}
					}
					JOINT RightShoulder
					{
						OFFSET -1.18875 -1.98124 6.41925
						CHANNELS 3 Xrotation Yrotation Zrotation
						JOINT RightArm
						{
							OFFSET -5.90412 0.00000 0.00000
							CHANNELS 3 Xrotation Yrotation Zrotation
							JOINT RightForeArm
							{
								OFFSET -11.94674 0.00000 0.00000
								CHANNELS 3 Xrotation Yrotation Zrotation
								JOINT RightHand
								{
									OFFSET -10.17720 0.00000 0.00000
									CHANNELS 3 Xrotation Yrotation Zrotation
									JOINT RightHandEnd
									{
										OFFSET -2.84518 0.00000 0.00000
										CHANNELS 3 Xrotation Yrotation Zrotation
										End Site
										{
											OFFSET -2.84518 0.00000 0.00000
										}
									}
									JOINT RightHandThumb1
									{
										OFFSET -1.13807 -1.89679 -0.75871
										CHANNELS 3 Yrotation Xrotation Zrotation
										End Site
										{
											OFFSET -2.74823 -0.73639 0.00000
										}
									}
								}
							}
						}
					}
					JOINT LeftShoulder
					{
						OFFSET 1.18875 -1.98124 6.41925
						CHANNELS 3 Xrotation Yrotation Zrotation
						JOINT LeftArm
						{
							OFFSET 5.90412 0.00000 0.00000
							CHANNELS 3 Xrotation Yrotation Zrotation
							JOINT LeftForeArm
							{
								OFFSET 11.94674 0.00000 0.00000
								CHANNELS 3 Xrotation Yrotation Zrotation
								JOINT LeftHand
								{
									OFFSET 10.17720 0.00000 0.00000
									CHANNELS 3 Xrotation Yrotation Zrotation
									JOINT LeftHandEnd
									{
										OFFSET 2.84518 0.00000 0.00000
										CHANNELS 3 Xrotation Yrotation Zrotation
										End Site
										{
											OFFSET 2.84518 0.00000 0.00000
										}
									}
									JOINT LeftHandThumb1
									{
										OFFSET 1.13807 -1.89679 -0.75871
										CHANNELS 3 Yrotation Xrotation Zrotation
										End Site
										{
											OFFSET 2.74823 -0.73639 0.00000
										}
									}
								}
							}
						}
					}
				}
			}
		}
	}
	JOINT RightUpLeg
	{
		OFFSET -3.52662 0.00000 -1.03025
		CHANNELS 3 Xrotation Yrotation Zrotation
		JOINT RightLeg
		{
			OFFSET 0.00001 0.00000 -17.80159
			CHANNELS 3 Xrotation Yrotation Zrotation
			JOINT RightFoot
			{
				OFFSET 0.00001 0.00000 -16.85992
				CHANNELS 3 Xrotation Yrotation Zrotation
				JOINT RightToeBase
				{
					OFFSET 0.00000 -5.42953 -1.97619
					CHANNELS 3 Xrotation Yrotation Zrotation
					End Site
					{
						OFFSET 0.00000 -2.85300 -0.00000
					}
				}
			}
		}
	}
	JOINT LeftUpLeg
	{
		OFFSET 3.52662 0.00000 -1.03025
		CHANNELS 3 Xrotation Yrotation Zrotation
		JOINT LeftLeg
		{
			OFFSET 0.00001 0.00000 -17.80159
			CHANNELS 3 Xrotation Yrotation Zrotation
			JOINT LeftFoot
			{
				OFFSET 0.00001 0.00000 -16.85992
				CHANNELS 3 Xrotation Yrotation Zrotation
				JOINT LeftToeBase
				{
					OFFSET 0.00000 -5.42953 -1.97619
					CHANNELS 3 Xrotation Yrotation Zrotation
					End Site
					{
						OFFSET 0.00000 -2.85300 -0.00000
					}
				}
			}
		}
	}
}
MOTION
Frames: 6
Frame Time: 0.008342
 -0.8072 -8.2567 38.1120 4.0739 3.0893 -176.0050 0.6816 0.9391 -0.6296 0.3558 0.4228 -0.0643 1.0373 -2.0553 -1.7903 0.0898 0.0680 0.3724 5.2619 -0.4123 -2.4092 -0.6524 1.1902 -0.7647 -0.2075 4.7467 -1.8719 0.1748 5.1412 -0.5108 0.0000 0.0000 13.1864 -6.8920 16.2400 -0.5342 -0.0000 -0.0000 -0.0000 -0.0000 0.0000 0.0000 -6.9454 -4.6484 -5.3849 11.8561 1.6552 -0.9892 -0.0000 -0.0000 -16.3991 -5.4398 -17.5970 -0.8148 -0.0000 -0.0000 0.0000 0.0000 -0.0000 -0.0000 3.5074 8.6275 -37.5789 14.9403 0.0000 0.0000 -13.8314 -3.4874 0.7399 4.5495 0.0000 0.0000 3.4006 -1.7715 10.5174 12.0216 0.0000 0.0000 -7.9248 8.9851 2.4500 -2.4796 0.0000 -0.0000
 -0.8149 -8.2479 38.1179 4.0542 3.1041 -176.0402 0.6521 0.9161 -0.6279 0.3516 0.4282 -0.0621 0.9860 -2.0062 -1.7727 0.0746 0.0798 0.3641 5.2488 -0.4094 -2.4048 -0.6341 1.1988 -0.7611 -0.3063 4.8757 -1.8297 0.2034 5.2295 -0.4990 0.0000 0.0000 13.1848 -6.8134 16.2793 -0.5520 -0.0000 0.0000 0.0000 -0.0000 0.0000 -0.0000 -7.0233 -4.7300 -5.3779 11.9432 1.5783 -0.9715 -0.0000 -0.0000 -16.3299 -5.3828 -17.5742 -0.7348 0.0000 0.0000 0.0000 -0.0000 -0.0000 0.0000 3.5639 8.6352 -37.7392 14.7981 0.0000 0.0000 -13.7462 -3.5432 0.9082 4.5427 0.0000 0.0000 3.3811 -1.6849 10.7508 12.0498 0.0000 0.0000 -7.9718 8.6888 2.5849 -2.3258 0.0000 -0.0000
 -0.8246 -8.2364 38.1251 4.0357 3.1161 -176.0854 0.6185 0.8836 -0.6274 0.3478 0.4304 -0.0594 0.9219 -1.9465 -1.7481 0.0539 0.0956 0.3522 5.2294 -0.4029 -2.3969 -0.6116 1.2091 -0.7592 -0.4289 5.0465 -1.7694 0.2433 5.3364 -0.4850 0.0000 0.0000 13.1740 -6.7204 16.3361 -0.5663 -0.0000 -0.0000 -0.0000 -0.0000 0.0000 0.0000 -7.1196 -4.8309 -5.3679 12.0500 1.4835 -0.9516 -0.0000 -0.0000 -16.2367 -5.3274 -17.5399 -0.6484 0.0000 0.0000 0.0000 0.0000 -0.0000 0.0000 3.6448 8.6325 -37.9295 14.6081 0.0000 0.0000 -13.6356 -3.6092 1.1123 4.5342 0.0000 0.0000 3.3642 -1.5838 11.0329 12.0836 0.0000 0.0000 -8.0342 8.3222 2.7549 -2.1356 0.0000 -0.0000
 -0.8363 -8.2221 38.1332 4.0256 3.1227 -176.1419 0.5893 0.8393 -0.6250 0.3432 0.4293 -0.0577 0.8457 -1.8760 -1.7177 0.0291 0.1133 0.3385 5.2020 -0.3914 -2.3852 -0.5840 1.2197 -0.7594 -0.5727 5.2605 -1.6903 0.2942 5.4564 -0.4702 0.0000 0.0000 13.1519 -6.6174 16.4043 -0.5742 -0.0000 0.0000 -0.0000 0.0000 -0.0000 0.0000 -7.2325 -4.9502 -5.3557 12.1721 1.3763 -0.9319 -0.0000 -0.0000 -16.1192 -5.2810 -17.4922 -0.5628 0.0000 -0.0000 0.0000 0.0000 -0.0000 -0.0000 3.7555 8.6151 -38.1378 14.3719 0.0000 0.0000 -13.5020 -3.6821 1.3425 4.5240 0.0000 0.0000 3.3596 -1.4750 11.3566 12.1192 0.0000 0.0000 -8.1096 7.9015 2.9499 -1.9160 0.0000 -0.0000
 -0.8497 -8.2058 38.1417 4.0178 3.1235 -176.2069 0.5574 0.7860 -0.6221 0.3395 0.4236 -0.0562 0.7598 -1.7993 -1.6807 0.0006 0.1334 0.3213 5.1643 -0.3741 -2.3688 -0.5525 1.2303 -0.7625 -0.7322 5.5152 -1.5949 0.3541 5.5829 -0.4504 0.0000 0.0000 13.1122 -6.5083 16.4808 -0.5720 -0.0000 0.0000 -0.0000 -0.0000 -0.0000 0.0000 -7.3582 -5.0838 -5.3407 12.3023 1.2612 -0.9148 -0.0000 -0.0000 -15.9786 -5.2500 -17.4299 -0.4863 -0.0000 0.0000 0.0000 -0.0000 -0.0000 0.0000 3.8839 8.5841 -38.3528 14.0998 0.0000 0.0000 -13.3519 -3.7573 1.5878 4.5132 0.0000 0.0000 3.3598 -1.3627 11.6993 12.1562 0.0000 0.0000 -8.1958 7.4482 3.1658 -1.6765 0.0000 -0.0000
 -0.8641 -8.1880 38.1501 4.0141 3.1115 -176.2779 0.5241 0.7199 -0.6175 0.3369 0.4121 -0.0562 0.6685 -1.7179 -1.6388 -0.0309 0.1538 0.3033 5.1169 -0.3499 -2.3496 -0.5195 1.2395 -0.7693 -0.9046 5.8031 -1.4809 0.4262 5.7130 -0.4346 0.0000 0.0000 13.0570 -6.3973 16.5553 -0.5598 0.0000 0.0000 -0.0000 0.0000 -0.0000 0.0000 -7.4941 -5.2243 -5.3271 12.4377 1.1409 -0.8999 -0.0000 -0.0000 -15.8176 -5.2425 -17.3538 -0.4273 0.0000 0.0000 -0.0000 0.0000 -0.0000 0.0000 4.0281 8.5309 -38.5610 13.7972 0.0000 0.0000 -13.1887 -3.8307 1.8342 4.5011 0.0000 0.0000 3.3657 -1.2615 12.0493 12.1953 0.0000 0.0000 -8.2915 6.9900 3.3835 -1.4292 0.0000 -0.0000
